<?xml version="1.0" encoding="UTF-8"?>
<svg width="512" height="512" viewBox="0 0 512 512" fill="none" xmlns="http://www.w3.org/2000/svg">
  <!-- Base circle -->
  <circle cx="256" cy="256" r="240" fill="currentColor" class="text-background dark:text-foreground"/>
  
  <!-- Robot features - using currentColor for theme adaptation -->
  <path
    fill-rule="evenodd"
    clip-rule="evenodd"
    d="M256 140c-63.962 0-116 52.038-116 116s52.038 116 116 116 116-52.038 116-116S319.962 140 256 140zM160 256c0-52.935 43.065-96 96-96s96 43.065 96 96-43.065 96-96 96-96-43.065-96-96z"
    fill="currentColor"
    class="text-foreground dark:text-background"
  />
  
  <!-- Eyes -->
  <circle cx="208" cy="236" r="24" fill="currentColor" class="text-foreground dark:text-background"/>
  <circle cx="304" cy="236" r="24" fill="currentColor" class="text-foreground dark:text-background"/>
  
  <!-- Antenna -->
  <path
    d="M256 120V80M256 80L226 60M256 80L286 60"
    stroke="currentColor"
    stroke-width="16"
    stroke-linecap="round"
    class="text-foreground dark:text-background"
  />
  
  <!-- Mouth -->
  <path
    d="M206 296c10 20 40 40 100 0"
    stroke="currentColor"
    stroke-width="16"
    stroke-linecap="round"
    class="text-foreground dark:text-background"
  />
</svg> 