<svg xmlns="http://www.w3.org/2000/svg" viewBox="0 0 400 400" fill="none" width="400" height="400">
  <!-- Background Glow -->
  <defs>
    <radialGradient id="brain-glow" cx="50%" cy="50%" r="70%">
      <stop offset="0%" stop-color="#00FFC6" stop-opacity="0.8" />
      <stop offset="100%" stop-color="#008080" stop-opacity="0" />
    </radialGradient>
  </defs>
  <circle cx="200" cy="200" r="180" fill="url(#brain-glow)" opacity="0.6" />

  <!-- Brain Structure -->
  <path d="M200 100 Q150 120, 120 200 Q150 280, 200 300 Q250 280, 280 200 Q250 120, 200 100" fill="none" stroke="#00FFC6" stroke-width="10" />
  
  <!-- Circuitry -->
  <path d="M200 100 V50" stroke="#FFD700" stroke-width="6" />
  <circle cx="200" cy="50" r="6" fill="#FFD700" />
  <path d="M120 200 H70" stroke="#FFD700" stroke-width="6" />
  <circle cx="70" cy="200" r="6" fill="#FFD700" />
  <path d="M280 200 H330" stroke="#FFD700" stroke-width="6" />
  <circle cx="330" cy="200" r="6" fill="#FFD700" />
  <path d="M200 300 V350" stroke="#FFD700" stroke-width="6" />
  <circle cx="200" cy="350" r="6" fill="#FFD700" />

  <!-- Neural Paths -->
  <path d="M200 120 Q180 150, 150 180" stroke="#00FFC6" stroke-width="4" />
  <path d="M200 120 Q220 150, 250 180" stroke="#00FFC6" stroke-width="4" />
  <path d="M150 220 Q170 240, 200 260" stroke="#00FFC6" stroke-width="4" />
  <path d="M250 220 Q230 240, 200 260" stroke="#00FFC6" stroke-width="4" />
  <circle cx="150" cy="180" r="6" fill="#00FFC6" />
  <circle cx="250" cy="180" r="6" fill="#00FFC6" />
  <circle cx="200" cy="260" r="6" fill="#00FFC6" />

  <!-- Outer Border -->
  <path d="M200 100 Q150 120, 120 200 Q150 280, 200 300 Q250 280, 280 200 Q250 120, 200 100" fill="none" stroke="#00FFC6" stroke-width="3" />
</svg>